<?xml version="1.0" encoding="UTF-8"?>
<svg version="1.1" xmlns="http://www.w3.org/2000/svg" width="2560" height="1846">
<path d="M0 0 C193.97899834 -0.68643692 193.97899834 -0.68643692 268.24093437 -0.81880438 C287.66002985 -0.85350523 307.07912361 -0.88900008 326.49821305 -0.92694189 C328.84712667 -0.93152918 331.19604034 -0.9360915 333.54495406 -0.94062851 C370.99693494 -1.01317566 408.44847976 -1.14074734 445.90019702 -1.29705275 C484.38902289 -1.45739494 522.87760759 -1.56204957 561.36676182 -1.59655483 C566.80204176 -1.60145352 572.23732088 -1.60698935 577.67259979 -1.61291313 C578.74234919 -1.61405932 579.81209858 -1.61520551 580.91426463 -1.61638644 C598.14019275 -1.6364823 615.36537554 -1.71534565 632.59099961 -1.81614458 C649.90528717 -1.9162097 667.21883526 -1.95446094 684.53340188 -1.92952342 C694.82325083 -1.91658454 705.11039518 -1.95112916 715.39975607 -2.05355823 C722.27383678 -2.11731802 729.14614719 -2.11928185 736.02035025 -2.07114083 C739.93824223 -2.04546878 743.85102439 -2.04652634 747.76836732 -2.1230141 C770.3878203 -2.5396521 770.3878203 -2.5396521 776.39771479 1.68578584 C780.28334361 5.6235907 782.83268739 10.01659728 785.08376357 15.03736014 C786.2750071 17.58908364 787.83710091 19.7449838 789.55859375 21.96484375 C790.27982422 22.96161133 790.27982422 22.96161133 791.015625 23.97851562 C791.71945312 24.94821289 791.71945312 24.94821289 792.4375 25.9375 C793.52997412 27.44659561 794.62242124 28.95571078 795.71484375 30.46484375 C796.25737793 31.21362793 796.79991211 31.96241211 797.35888672 32.73388672 C800.07648173 36.486448 802.78794473 40.24343419 805.5 44 C806.58330362 45.50002146 807.66663696 47.00002146 808.75 48.5 C889.1875 159.875 889.1875 159.875 1127.25 489.5 C1127.7864917 490.24282227 1128.3229834 490.98564453 1128.87573242 491.75097656 C1129.95667191 493.24768701 1131.03756401 494.74443168 1132.1184082 496.24121094 C1134.8629754 500.04182637 1137.60841966 503.84180298 1140.35546875 507.640625 C1145.65682231 514.97333833 1150.94655437 522.31361844 1156.19873047 529.68164062 C1161.2098587 536.70564895 1166.27069471 543.69378507 1171.32666016 550.68554688 C1174.05263139 554.45593019 1176.77621534 558.22803694 1179.5 562 C1180.58332144 563.50000859 1181.66665479 565.00000858 1182.75 566.5 C1241.24999998 647.49999997 1241.24999998 647.49999997 1242.8762207 649.75170898 C1243.95546124 651.24602955 1245.03472542 652.74033304 1246.11401367 654.23461914 C1248.88516469 658.0713721 1251.65585687 661.90845512 1254.42578125 665.74609375 C1254.98885986 666.52597656 1255.55193848 667.30585937 1256.13208008 668.109375 C1257.2379624 669.64151125 1258.34328376 671.17405259 1259.44799805 672.70703125 C1261.81262846 675.98579096 1264.18347504 679.25850868 1266.59375 682.50390625 C1267.3259375 683.49261719 1268.058125 684.48132813 1268.8125 685.5 C1269.75029297 686.75296875 1269.75029297 686.75296875 1270.70703125 688.03125 C1272 690 1272 690 1272 692 C1276.2882359 687.98766163 1279.61679406 683.60021145 1283 678.8125 C1284.15612683 677.19392243 1285.31238037 675.57543536 1286.46875 673.95703125 C1287.05527344 673.13283691 1287.64179687 672.30864258 1288.24609375 671.45947266 C1290.97939021 667.6266179 1293.74030259 663.81386493 1296.5 660 C1297.58348209 658.50010745 1298.66681504 657.00010715 1299.75 655.5 C1348.5 588 1348.5 588 1397.25 520.5 C1397.78616943 519.75758057 1398.32233887 519.01516113 1398.87475586 518.25024414 C1399.95878416 516.7493445 1401.04293142 515.24853078 1402.12719727 513.74780273 C1404.82587655 510.01226033 1407.52251312 506.27527746 1410.21484375 502.53515625 C1415.82903178 494.74084153 1421.47885383 486.975464 1427.1875 479.25 C1432.00286929 472.73277127 1436.75864473 466.17886685 1441.453125 459.57421875 C1444.38542733 455.45110426 1447.34848276 451.35034806 1450.3125 447.25 C1451.13439819 446.11292603 1451.13439819 446.11292603 1451.97290039 444.95288086 C1453.09072453 443.40666903 1454.20864504 441.86052687 1455.32666016 440.31445312 C1458.05263139 436.54406981 1460.77621534 432.77196306 1463.5 429 C1464.58332144 427.49999141 1465.66665479 425.99999142 1466.75 424.5 C1467.28625 423.7575 1467.8225 423.015 1468.375 422.25 C1490.3125 391.875 1490.3125 391.875 1512.25 361.5 C1512.78616943 360.75758057 1513.32233887 360.01516113 1513.87475586 359.25024414 C1514.95878416 357.7493445 1516.04293142 356.24853078 1517.12719727 354.74780273 C1519.82587655 351.01226033 1522.52251312 347.27527746 1525.21484375 343.53515625 C1530.82903178 335.74084153 1536.47885383 327.975464 1542.1875 320.25 C1547.00286929 313.73277127 1551.75864473 307.17886685 1556.453125 300.57421875 C1559.38542733 296.45110426 1562.34848276 292.35034806 1565.3125 288.25 C1566.13439819 287.11292603 1566.13439819 287.11292603 1566.97290039 285.95288086 C1568.09072453 284.40666903 1569.20864504 282.86052687 1570.32666016 281.31445312 C1573.05263139 277.54406981 1575.77621534 273.77196306 1578.5 270 C1579.58332144 268.49999141 1580.66665479 266.99999142 1581.75 265.5 C1582.28625 264.7575 1582.8225 264.015 1583.375 263.25 C1598 243 1612.625 222.75 1627.25 202.5 C1627.78616943 201.75758057 1628.32233887 201.01516113 1628.87475586 200.25024414 C1629.95878416 198.7493445 1631.04293142 197.24853078 1632.12719727 195.74780273 C1634.82587655 192.01226033 1637.52251312 188.27527746 1640.21484375 184.53515625 C1645.82903178 176.74084153 1651.47885383 168.975464 1657.1875 161.25 C1662.00286929 154.73277127 1666.75864473 148.17886685 1671.453125 141.57421875 C1674.38542733 137.45110426 1677.34848276 133.35034806 1680.3125 129.25 C1680.86043213 128.49195068 1681.40836426 127.73390137 1681.97290039 126.95288086 C1683.09072453 125.40666903 1684.20864504 123.86052687 1685.32666016 122.31445312 C1688.05263139 118.54406981 1690.77621534 114.77196306 1693.5 111 C1694.58332144 109.49999141 1695.66665479 107.99999142 1696.75 106.5 C1697.28625 105.7575 1697.8225 105.015 1698.375 104.25 C1713 84 1727.625 63.75 1742.25 43.5 C1742.78657227 42.7570166 1743.32314453 42.0140332 1743.87597656 41.24853516 C1744.95591198 39.75331489 1746.03598939 38.25819716 1747.11621094 36.76318359 C1749.8777244 32.94089565 1752.63650813 29.11668417 1755.390625 25.2890625 C1755.95330078 24.50789063 1756.51597656 23.72671875 1757.09570312 22.921875 C1758.1474338 21.46162084 1759.1983126 20.00075247 1760.24804688 18.5390625 C1761.22564457 17.18250117 1762.21523042 15.83448525 1763.2175597 14.49609371 C1765.07597781 11.95975805 1765.07597781 11.95975805 1766.82431134 8.9897465 C1772.19758395 0.68639229 1772.19758395 0.68639229 1776.91303343 -1.10933527 C1780.38492687 -1.52782568 1783.6835015 -1.56717153 1787.17965794 -1.47657394 C1788.49515539 -1.49042008 1789.81065285 -1.50426621 1791.16601387 -1.51853192 C1794.8149211 -1.55525432 1798.45979728 -1.51737458 1802.10840285 -1.46719432 C1806.07806578 -1.42588833 1810.04733045 -1.45445058 1814.01707453 -1.47412419 C1820.9731892 -1.49898906 1827.92807139 -1.47932273 1834.88404274 -1.4304657 C1845.22702852 -1.35802101 1855.56923777 -1.35443783 1865.91243101 -1.36496956 C1883.31119568 -1.38073481 1900.70941339 -1.34064641 1918.10801888 -1.26876068 C1935.33556893 -1.19776409 1952.56289119 -1.15157102 1969.79058647 -1.13852692 C1970.86161388 -1.13770204 1971.93264128 -1.13687717 1973.03612406 -1.13602729 C1978.47529794 -1.13196731 1983.91447203 -1.1283507 1989.35364633 -1.12490478 C2027.88264781 -1.09969761 2066.41135171 -1.01884338 2104.94018555 -0.90527344 C2142.3711594 -0.79506693 2179.80205118 -0.7102633 2217.2331543 -0.65917969 C2219.5868087 -0.65593198 2221.94046311 -0.65268353 2224.29411751 -0.64943433 C2243.41844568 -0.62316919 2262.5427761 -0.59865822 2281.66710713 -0.57457253 C2370.11168672 -0.46191831 2458.55548979 -0.22107545 2547 0 C2547 180.18 2547 360.36 2547 546 C2483.97 546 2420.94 546 2356 546 C2356 790.86 2356 1035.72 2356 1288 C2419.03 1288 2482.06 1288 2547 1288 C2547 1467.85 2547 1647.7 2547 1833 C2221.95 1833 1896.9 1833 1562 1833 C1562 1653.15 1562 1473.3 1562 1288 C1629.32 1288 1696.64 1288 1766 1288 C1765.67 1148.41 1765.34 1008.82 1765 865 C1755.06009119 877.92377794 1755.06009119 877.92377794 1745.4375 891.0625 C1741.37308915 896.73467416 1737.26260362 902.36500939 1733.0625 907.9375 C1723.47505998 920.66204179 1714.05717089 933.50721121 1704.75415039 946.44091797 C1700.74507859 952.00131829 1696.64920011 957.49087984 1692.51904297 962.96166992 C1688.77967771 967.92765008 1685.12709355 972.95157248 1681.5 978 C1677.4107574 983.6897764 1673.27893953 989.34127495 1669.0625 994.9375 C1660.03247019 1006.92273076 1651.13856652 1019.00608994 1642.375 1031.1875 C1637.84881579 1037.47772501 1633.25017255 1043.70643571 1628.5871582 1049.89575195 C1619.49500425 1061.96957353 1610.57958256 1074.17118776 1601.75415039 1086.44091797 C1597.74507859 1092.00131829 1593.64920011 1097.49087984 1589.51904297 1102.96166992 C1585.77967771 1107.92765008 1582.12709355 1112.95157248 1578.5 1118 C1574.4107574 1123.6897764 1570.27893953 1129.34127495 1566.0625 1134.9375 C1557.03247019 1146.92273076 1548.13856652 1159.00608994 1539.375 1171.1875 C1534.84881579 1177.47772501 1530.25017255 1183.70643571 1525.5871582 1189.89575195 C1516.49500425 1201.96957353 1507.57958256 1214.17118776 1498.75415039 1226.44091797 C1494.74507859 1232.00131829 1490.64920011 1237.49087984 1486.51904297 1242.96166992 C1482.77967771 1247.92765008 1479.12709355 1252.95157248 1475.5 1258 C1471.4107574 1263.6897764 1467.27893953 1269.34127495 1463.0625 1274.9375 C1454.03247019 1286.92273076 1445.13856652 1299.00608994 1436.375 1311.1875 C1431.84881579 1317.47772501 1427.25017255 1323.70643571 1422.5871582 1329.89575195 C1413.49500425 1341.96957353 1404.57958256 1354.17118776 1395.75415039 1366.44091797 C1391.74507859 1372.00131829 1387.64920011 1377.49087984 1383.51904297 1382.96166992 C1379.77967771 1387.92765008 1376.12709355 1392.95157248 1372.5 1398 C1368.4107574 1403.6897764 1364.27893953 1409.34127495 1360.0625 1414.9375 C1351.03247019 1426.92273076 1342.13856652 1439.00608994 1333.375 1451.1875 C1328.84881579 1457.47772501 1324.25017255 1463.70643571 1319.5871582 1469.89575195 C1310.50166593 1481.96072722 1301.5899708 1494.15167145 1292.77392578 1506.41455078 C1288.57875728 1512.23523437 1284.2960816 1517.98615377 1279.95654297 1523.69995117 C1277.16568762 1527.38713607 1274.52544056 1531.12567708 1272 1535 C1268.83209844 1533.64492915 1267.19384681 1532.31217904 1265.22265625 1529.5 C1264.71613525 1528.787229 1264.20961426 1528.07445801 1263.68774414 1527.34008789 C1263.15141357 1526.56785889 1262.61508301 1525.79562988 1262.0625 1525 C1260.89602169 1523.35273119 1259.72934973 1521.70559949 1258.5625 1520.05859375 C1257.96953125 1519.21538574 1257.3765625 1518.37217773 1256.765625 1517.50341797 C1254.06081713 1513.66836543 1251.31281283 1509.86498552 1248.5625 1506.0625 C1248.02955322 1505.32386719 1247.49660645 1504.58523438 1246.94750977 1503.82421875 C1242.99849737 1498.35790133 1239.00684594 1492.92402273 1235 1487.5 C1227.72057378 1477.64592179 1220.55169676 1467.71425666 1213.39550781 1457.77050781 C1207.3076125 1449.31406964 1201.19131259 1440.88111091 1195 1432.5 C1187.72057378 1422.64592179 1180.55169676 1412.71425666 1173.39550781 1402.77050781 C1167.3076125 1394.31406964 1161.19131259 1385.88111091 1155 1377.5 C1147.72057378 1367.64592179 1140.55169676 1357.71425666 1133.39550781 1347.77050781 C1127.3076125 1339.31406964 1121.19131259 1330.88111091 1115 1322.5 C1107.72057378 1312.64592179 1100.55169676 1302.71425666 1093.39550781 1292.77050781 C1087.3076125 1284.31406964 1081.19131259 1275.88111091 1075 1267.5 C1067.72057378 1257.64592179 1060.55169676 1247.71425666 1053.39550781 1237.77050781 C1047.3076125 1229.31406964 1041.19131259 1220.88111091 1035 1212.5 C1027.72057378 1202.64592179 1020.55169676 1192.71425666 1013.39550781 1182.77050781 C1007.3076125 1174.31406964 1001.19131259 1165.88111091 995 1157.5 C987.72057378 1147.64592179 980.55169676 1137.71425666 973.39550781 1127.77050781 C967.3076125 1119.31406964 961.19131259 1110.88111091 955 1102.5 C947.72057378 1092.64592179 940.55169676 1082.71425666 933.39550781 1072.77050781 C927.3076125 1064.31406964 921.19131259 1055.88111091 915 1047.5 C907.72057378 1037.64592179 900.55169676 1027.71425666 893.39550781 1017.77050781 C887.3076125 1009.31406964 881.19131259 1000.88111091 875 992.5 C867.72057378 982.64592179 860.55169676 972.71425666 853.39550781 962.77050781 C847.3076125 954.31406964 841.19131259 945.88111091 835 937.5 C827.72057378 927.64592179 820.55169676 917.71425666 813.39550781 907.77050781 C806.57093648 898.29078411 799.70331354 888.84567825 792.75610352 879.45532227 C792.20752686 878.71338623 791.6589502 877.9714502 791.09375 877.20703125 C790.61615234 876.5622583 790.13855469 875.91748535 789.64648438 875.25317383 C787.40588629 872.18696983 785.20731942 869.09024719 783 866 C782.67 1005.26 782.34 1144.52 782 1288 C849.32 1288 916.64 1288 986 1288 C986 1467.85 986 1647.7 986 1833 C660.62 1833 335.24 1833 0 1833 C0 1653.15 0 1473.3 0 1288 C63.36 1288 126.72 1288 192 1288 C192 1043.14 192 798.28 192 546 C128.64 546 65.28 546 0 546 C0 365.82 0 185.64 0 0 Z " fill="#F4C200" transform="translate(9,10)"/>
<path d="M0 0 C193.97899834 -0.68643692 193.97899834 -0.68643692 268.24093437 -0.81880438 C287.66002985 -0.85350523 307.07912361 -0.88900008 326.49821305 -0.92694189 C328.84712667 -0.93152918 331.19604034 -0.9360915 333.54495406 -0.94062851 C370.99693494 -1.01317566 408.44847976 -1.14074734 445.90019702 -1.29705275 C484.38902289 -1.45739494 522.87760759 -1.56204957 561.36676182 -1.59655483 C566.80204176 -1.60145352 572.23732088 -1.60698935 577.67259979 -1.61291313 C578.74234919 -1.61405932 579.81209858 -1.61520551 580.91426463 -1.61638644 C598.14019275 -1.6364823 615.36537554 -1.71534565 632.59099961 -1.81614458 C649.90528717 -1.9162097 667.21883526 -1.95446094 684.53340188 -1.92952342 C694.82325083 -1.91658454 705.11039518 -1.95112916 715.39975607 -2.05355823 C722.27383678 -2.11731802 729.14614719 -2.11928185 736.02035025 -2.07114083 C739.93824223 -2.04546878 743.85102439 -2.04652634 747.76836732 -2.1230141 C770.3878203 -2.5396521 770.3878203 -2.5396521 776.39771479 1.68578584 C780.28334361 5.6235907 782.83268739 10.01659728 785.08376357 15.03736014 C786.2750071 17.58908364 787.83710091 19.7449838 789.55859375 21.96484375 C790.27982422 22.96161133 790.27982422 22.96161133 791.015625 23.97851562 C791.71945312 24.94821289 791.71945312 24.94821289 792.4375 25.9375 C793.52997412 27.44659561 794.62242124 28.95571078 795.71484375 30.46484375 C796.25737793 31.21362793 796.79991211 31.96241211 797.35888672 32.73388672 C800.07648173 36.486448 802.78794473 40.24343419 805.5 44 C806.58330362 45.50002146 807.66663696 47.00002146 808.75 48.5 C889.1875 159.875 889.1875 159.875 1127.25 489.5 C1127.7864917 490.24282227 1128.3229834 490.98564453 1128.87573242 491.75097656 C1129.95667191 493.24768701 1131.03756401 494.74443168 1132.1184082 496.24121094 C1134.8629754 500.04182637 1137.60841966 503.84180298 1140.35546875 507.640625 C1145.65682231 514.97333833 1150.94655437 522.31361844 1156.19873047 529.68164062 C1161.2098587 536.70564895 1166.27069471 543.69378507 1171.32666016 550.68554688 C1174.05263139 554.45593019 1176.77621534 558.22803694 1179.5 562 C1180.58332144 563.50000859 1181.66665479 565.00000858 1182.75 566.5 C1241.24999998 647.49999997 1241.24999998 647.49999997 1242.8762207 649.75170898 C1243.95546124 651.24602955 1245.03472542 652.74033304 1246.11401367 654.23461914 C1248.88516469 658.0713721 1251.65585687 661.90845512 1254.42578125 665.74609375 C1254.98885986 666.52597656 1255.55193848 667.30585937 1256.13208008 668.109375 C1257.2379624 669.64151125 1258.34328376 671.17405259 1259.44799805 672.70703125 C1261.81262846 675.98579096 1264.18347504 679.25850868 1266.59375 682.50390625 C1267.3259375 683.49261719 1268.058125 684.48132813 1268.8125 685.5 C1269.75029297 686.75296875 1269.75029297 686.75296875 1270.70703125 688.03125 C1272 690 1272 690 1272 692 C1276.2882359 687.98766163 1279.61679406 683.60021145 1283 678.8125 C1284.15612683 677.19392243 1285.31238037 675.57543536 1286.46875 673.95703125 C1287.05527344 673.13283691 1287.64179687 672.30864258 1288.24609375 671.45947266 C1290.97939021 667.6266179 1293.74030259 663.81386493 1296.5 660 C1297.58348209 658.50010745 1298.66681504 657.00010715 1299.75 655.5 C1348.5 588 1348.5 588 1397.25 520.5 C1397.78616943 519.75758057 1398.32233887 519.01516113 1398.87475586 518.25024414 C1399.95878416 516.7493445 1401.04293142 515.24853078 1402.12719727 513.74780273 C1404.82587655 510.01226033 1407.52251312 506.27527746 1410.21484375 502.53515625 C1415.82903178 494.74084153 1421.47885383 486.975464 1427.1875 479.25 C1432.00286929 472.73277127 1436.75864473 466.17886685 1441.453125 459.57421875 C1444.38542733 455.45110426 1447.34848276 451.35034806 1450.3125 447.25 C1451.13439819 446.11292603 1451.13439819 446.11292603 1451.97290039 444.95288086 C1453.09072453 443.40666903 1454.20864504 441.86052687 1455.32666016 440.31445312 C1458.05263139 436.54406981 1460.77621534 432.77196306 1463.5 429 C1464.58332144 427.49999141 1465.66665479 425.99999142 1466.75 424.5 C1467.28625 423.7575 1467.8225 423.015 1468.375 422.25 C1490.3125 391.875 1490.3125 391.875 1512.25 361.5 C1512.78616943 360.75758057 1513.32233887 360.01516113 1513.87475586 359.25024414 C1514.95878416 357.7493445 1516.04293142 356.24853078 1517.12719727 354.74780273 C1519.82587655 351.01226033 1522.52251312 347.27527746 1525.21484375 343.53515625 C1530.82903178 335.74084153 1536.47885383 327.975464 1542.1875 320.25 C1547.00286929 313.73277127 1551.75864473 307.17886685 1556.453125 300.57421875 C1559.38542733 296.45110426 1562.34848276 292.35034806 1565.3125 288.25 C1566.13439819 287.11292603 1566.13439819 287.11292603 1566.97290039 285.95288086 C1568.09072453 284.40666903 1569.20864504 282.86052687 1570.32666016 281.31445312 C1573.05263139 277.54406981 1575.77621534 273.77196306 1578.5 270 C1579.58332144 268.49999141 1580.66665479 266.99999142 1581.75 265.5 C1582.28625 264.7575 1582.8225 264.015 1583.375 263.25 C1598 243 1612.625 222.75 1627.25 202.5 C1627.78616943 201.75758057 1628.32233887 201.01516113 1628.87475586 200.25024414 C1629.95878416 198.7493445 1631.04293142 197.24853078 1632.12719727 195.74780273 C1634.82587655 192.01226033 1637.52251312 188.27527746 1640.21484375 184.53515625 C1645.82903178 176.74084153 1651.47885383 168.975464 1657.1875 161.25 C1662.00286929 154.73277127 1666.75864473 148.17886685 1671.453125 141.57421875 C1674.38542733 137.45110426 1677.34848276 133.35034806 1680.3125 129.25 C1680.86043213 128.49195068 1681.40836426 127.73390137 1681.97290039 126.95288086 C1683.09072453 125.40666903 1684.20864504 123.86052687 1685.32666016 122.31445312 C1688.05263139 118.54406981 1690.77621534 114.77196306 1693.5 111 C1694.58332144 109.49999141 1695.66665479 107.99999142 1696.75 106.5 C1697.28625 105.7575 1697.8225 105.015 1698.375 104.25 C1713 84 1727.625 63.75 1742.25 43.5 C1742.78657227 42.7570166 1743.32314453 42.0140332 1743.87597656 41.24853516 C1744.95591198 39.75331489 1746.03598939 38.25819716 1747.11621094 36.76318359 C1749.8777244 32.94089565 1752.63650813 29.11668417 1755.390625 25.2890625 C1755.95330078 24.50789063 1756.51597656 23.72671875 1757.09570312 22.921875 C1758.1474338 21.46162084 1759.1983126 20.00075247 1760.24804688 18.5390625 C1761.22564457 17.18250117 1762.21523042 15.83448525 1763.2175597 14.49609371 C1765.07597781 11.95975805 1765.07597781 11.95975805 1766.82431134 8.9897465 C1772.19758395 0.68639229 1772.19758395 0.68639229 1776.91303343 -1.10933527 C1780.38492687 -1.52782568 1783.6835015 -1.56717153 1787.17965794 -1.47657394 C1788.49515539 -1.49042008 1789.81065285 -1.50426621 1791.16601387 -1.51853192 C1794.8149211 -1.55525432 1798.45979728 -1.51737458 1802.10840285 -1.46719432 C1806.07806578 -1.42588833 1810.04733045 -1.45445058 1814.01707453 -1.47412419 C1820.9731892 -1.49898906 1827.92807139 -1.47932273 1834.88404274 -1.4304657 C1845.22702852 -1.35802101 1855.56923777 -1.35443783 1865.91243101 -1.36496956 C1883.31119568 -1.38073481 1900.70941339 -1.34064641 1918.10801888 -1.26876068 C1935.33556893 -1.19776409 1952.56289119 -1.15157102 1969.79058647 -1.13852692 C1970.86161388 -1.13770204 1971.93264128 -1.13687717 1973.03612406 -1.13602729 C1978.47529794 -1.13196731 1983.91447203 -1.1283507 1989.35364633 -1.12490478 C2027.88264781 -1.09969761 2066.41135171 -1.01884338 2104.94018555 -0.90527344 C2142.3711594 -0.79506693 2179.80205118 -0.7102633 2217.2331543 -0.65917969 C2219.5868087 -0.65593198 2221.94046311 -0.65268353 2224.29411751 -0.64943433 C2243.41844568 -0.62316919 2262.5427761 -0.59865822 2281.66710713 -0.57457253 C2370.11168672 -0.46191831 2458.55548979 -0.22107545 2547 0 C2547 180.18 2547 360.36 2547 546 C2483.97 546 2420.94 546 2356 546 C2356 790.86 2356 1035.72 2356 1288 C2419.03 1288 2482.06 1288 2547 1288 C2547 1467.85 2547 1647.7 2547 1833 C2221.95 1833 1896.9 1833 1562 1833 C1562 1653.15 1562 1473.3 1562 1288 C1629.32 1288 1696.64 1288 1766 1288 C1765.67 1148.41 1765.34 1008.82 1765 865 C1755.06009119 877.92377794 1755.06009119 877.92377794 1745.4375 891.0625 C1741.37308915 896.73467416 1737.26260362 902.36500939 1733.0625 907.9375 C1723.47505998 920.66204179 1714.05717089 933.50721121 1704.75415039 946.44091797 C1700.74507859 952.00131829 1696.64920011 957.49087984 1692.51904297 962.96166992 C1688.77967771 967.92765008 1685.12709355 972.95157248 1681.5 978 C1677.4107574 983.6897764 1673.27893953 989.34127495 1669.0625 994.9375 C1660.03247019 1006.92273076 1651.13856652 1019.00608994 1642.375 1031.1875 C1637.84881579 1037.47772501 1633.25017255 1043.70643571 1628.5871582 1049.89575195 C1619.49500425 1061.96957353 1610.57958256 1074.17118776 1601.75415039 1086.44091797 C1597.74507859 1092.00131829 1593.64920011 1097.49087984 1589.51904297 1102.96166992 C1585.77967771 1107.92765008 1582.12709355 1112.95157248 1578.5 1118 C1574.4107574 1123.6897764 1570.27893953 1129.34127495 1566.0625 1134.9375 C1557.03247019 1146.92273076 1548.13856652 1159.00608994 1539.375 1171.1875 C1534.84881579 1177.47772501 1530.25017255 1183.70643571 1525.5871582 1189.89575195 C1516.49500425 1201.96957353 1507.57958256 1214.17118776 1498.75415039 1226.44091797 C1494.74507859 1232.00131829 1490.64920011 1237.49087984 1486.51904297 1242.96166992 C1482.77967771 1247.92765008 1479.12709355 1252.95157248 1475.5 1258 C1471.4107574 1263.6897764 1467.27893953 1269.34127495 1463.0625 1274.9375 C1454.03247019 1286.92273076 1445.13856652 1299.00608994 1436.375 1311.1875 C1431.84881579 1317.47772501 1427.25017255 1323.70643571 1422.5871582 1329.89575195 C1413.49500425 1341.96957353 1404.57958256 1354.17118776 1395.75415039 1366.44091797 C1391.74507859 1372.00131829 1387.64920011 1377.49087984 1383.51904297 1382.96166992 C1379.77967771 1387.92765008 1376.12709355 1392.95157248 1372.5 1398 C1368.4107574 1403.6897764 1364.27893953 1409.34127495 1360.0625 1414.9375 C1351.03247019 1426.92273076 1342.13856652 1439.00608994 1333.375 1451.1875 C1328.84881579 1457.47772501 1324.25017255 1463.70643571 1319.5871582 1469.89575195 C1310.50166593 1481.96072722 1301.5899708 1494.15167145 1292.77392578 1506.41455078 C1288.57875728 1512.23523437 1284.2960816 1517.98615377 1279.95654297 1523.69995117 C1277.16568762 1527.38713607 1274.52544056 1531.12567708 1272 1535 C1268.83209844 1533.64492915 1267.19384681 1532.31217904 1265.22265625 1529.5 C1264.71613525 1528.787229 1264.20961426 1528.07445801 1263.68774414 1527.34008789 C1263.15141357 1526.56785889 1262.61508301 1525.79562988 1262.0625 1525 C1260.89602169 1523.35273119 1259.72934973 1521.70559949 1258.5625 1520.05859375 C1257.96953125 1519.21538574 1257.3765625 1518.37217773 1256.765625 1517.50341797 C1254.06081713 1513.66836543 1251.31281283 1509.86498552 1248.5625 1506.0625 C1248.02955322 1505.32386719 1247.49660645 1504.58523438 1246.94750977 1503.82421875 C1242.99849737 1498.35790133 1239.00684594 1492.92402273 1235 1487.5 C1227.72057378 1477.64592179 1220.55169676 1467.71425666 1213.39550781 1457.77050781 C1207.3076125 1449.31406964 1201.19131259 1440.88111091 1195 1432.5 C1187.72057378 1422.64592179 1180.55169676 1412.71425666 1173.39550781 1402.77050781 C1167.3076125 1394.31406964 1161.19131259 1385.88111091 1155 1377.5 C1147.72057378 1367.64592179 1140.55169676 1357.71425666 1133.39550781 1347.77050781 C1127.3076125 1339.31406964 1121.19131259 1330.88111091 1115 1322.5 C1107.72057378 1312.64592179 1100.55169676 1302.71425666 1093.39550781 1292.77050781 C1087.3076125 1284.31406964 1081.19131259 1275.88111091 1075 1267.5 C1067.72057378 1257.64592179 1060.55169676 1247.71425666 1053.39550781 1237.77050781 C1047.3076125 1229.31406964 1041.19131259 1220.88111091 1035 1212.5 C1027.72057378 1202.64592179 1020.55169676 1192.71425666 1013.39550781 1182.77050781 C1007.3076125 1174.31406964 1001.19131259 1165.88111091 995 1157.5 C987.72057378 1147.64592179 980.55169676 1137.71425666 973.39550781 1127.77050781 C967.3076125 1119.31406964 961.19131259 1110.88111091 955 1102.5 C947.72057378 1092.64592179 940.55169676 1082.71425666 933.39550781 1072.77050781 C927.3076125 1064.31406964 921.19131259 1055.88111091 915 1047.5 C907.72057378 1037.64592179 900.55169676 1027.71425666 893.39550781 1017.77050781 C887.3076125 1009.31406964 881.19131259 1000.88111091 875 992.5 C867.72057378 982.64592179 860.55169676 972.71425666 853.39550781 962.77050781 C847.3076125 954.31406964 841.19131259 945.88111091 835 937.5 C827.72057378 927.64592179 820.55169676 917.71425666 813.39550781 907.77050781 C806.57093648 898.29078411 799.70331354 888.84567825 792.75610352 879.45532227 C792.20752686 878.71338623 791.6589502 877.9714502 791.09375 877.20703125 C790.61615234 876.5622583 790.13855469 875.91748535 789.64648438 875.25317383 C787.40588629 872.18696983 785.20731942 869.09024719 783 866 C782.67 1005.26 782.34 1144.52 782 1288 C849.32 1288 916.64 1288 986 1288 C986 1467.85 986 1647.7 986 1833 C660.62 1833 335.24 1833 0 1833 C0 1653.15 0 1473.3 0 1288 C63.36 1288 126.72 1288 192 1288 C192 1043.14 192 798.28 192 546 C128.64 546 65.28 546 0 546 C0 365.82 0 185.64 0 0 Z M42 42 C42 194.46 42 346.92 42 504 C105.03 504 168.06 504 233 504 C233 776.25 233 1048.5 233 1329 C169.97 1329 106.94 1329 42 1329 C42 1481.79 42 1634.58 42 1792 C339.66 1792 637.32 1792 944 1792 C944 1639.21 944 1486.42 944 1329 C876.68 1329 809.36 1329 740 1329 C740.495 1035.96 740.495 1035.96 741 737 C744.96 742.61 748.92 748.22 753 754 C755.30039382 757.15679689 757.60501924 760.30510379 759.9375 763.4375 C767.24572448 773.3068044 774.43117071 783.26193715 781.60449219 793.22949219 C787.6923875 801.68593036 793.80868741 810.11888909 800 818.5 C807.27942622 828.35407821 814.44830324 838.28574334 821.60449219 848.22949219 C827.6923875 856.68593036 833.80868741 865.11888909 840 873.5 C847.27942622 883.35407821 854.44830324 893.28574334 861.60449219 903.22949219 C867.6923875 911.68593036 873.80868741 920.11888909 880 928.5 C887.27942622 938.35407821 894.44830324 948.28574334 901.60449219 958.22949219 C907.6923875 966.68593036 913.80868741 975.11888909 920 983.5 C927.27942622 993.35407821 934.44830324 1003.28574334 941.60449219 1013.22949219 C947.6923875 1021.68593036 953.80868741 1030.11888909 960 1038.5 C967.27942622 1048.35407821 974.44830324 1058.28574334 981.60449219 1068.22949219 C987.6923875 1076.68593036 993.80868741 1085.11888909 1000 1093.5 C1007.27942622 1103.35407821 1014.44830324 1113.28574334 1021.60449219 1123.22949219 C1027.6923875 1131.68593036 1033.80868741 1140.11888909 1040 1148.5 C1047.27942622 1158.35407821 1054.44830324 1168.28574334 1061.60449219 1178.22949219 C1067.6923875 1186.68593036 1073.80868741 1195.11888909 1080 1203.5 C1087.27942622 1213.35407821 1094.44830324 1223.28574334 1101.60449219 1233.22949219 C1107.6923875 1241.68593036 1113.80868741 1250.11888909 1120 1258.5 C1127.27942622 1268.35407821 1134.44830324 1278.28574334 1141.60449219 1288.22949219 C1147.6923875 1296.68593036 1153.80868741 1305.11888909 1160 1313.5 C1167.27942622 1323.35407821 1174.44830324 1333.28574334 1181.60449219 1343.22949219 C1187.6923875 1351.68593036 1193.80868741 1360.11888909 1200 1368.5 C1207.27942622 1378.35407821 1214.44830324 1388.28574334 1221.60449219 1398.22949219 C1227.69238778 1406.68593075 1233.80871222 1415.11887042 1240 1423.5 C1250.14255524 1437.23063712 1260.09716762 1451.09579742 1270 1465 C1273.96898303 1461.22515201 1277.25415874 1457.21725907 1280.5 1452.8125 C1281.01626953 1452.11833984 1281.53253906 1451.42417969 1282.06445312 1450.70898438 C1286.48056661 1444.75174826 1290.81536246 1438.73606738 1295.14257812 1432.71411133 C1299.18344843 1427.10011913 1303.31281456 1421.55927992 1307.48046875 1416.0390625 C1311.21990873 1411.07277213 1314.872735 1406.04866616 1318.5 1401 C1322.5892426 1395.3102236 1326.72106047 1389.65872505 1330.9375 1384.0625 C1339.96752981 1372.07726924 1348.86143348 1359.99391006 1357.625 1347.8125 C1362.15118421 1341.52227499 1366.74982745 1335.29356429 1371.4128418 1329.10424805 C1379.94805014 1317.77001601 1388.3390516 1306.33001802 1396.625 1294.8125 C1401.15118421 1288.52227499 1405.74982745 1282.29356429 1410.4128418 1276.10424805 C1419.50499575 1264.03042647 1428.42041744 1251.82881224 1437.24584961 1239.55908203 C1441.25492141 1233.99868171 1445.35079989 1228.50912016 1449.48095703 1223.03833008 C1453.22032229 1218.07234992 1456.87290645 1213.04842752 1460.5 1208 C1464.5892426 1202.3102236 1468.72106047 1196.65872505 1472.9375 1191.0625 C1481.96752981 1179.07726924 1490.86143348 1166.99391006 1499.625 1154.8125 C1504.15118421 1148.52227499 1508.74982745 1142.29356429 1513.4128418 1136.10424805 C1522.50499575 1124.03042647 1531.42041744 1111.82881224 1540.24584961 1099.55908203 C1544.25492141 1093.99868171 1548.35079989 1088.50912016 1552.48095703 1083.03833008 C1556.22032229 1078.07234992 1559.87290645 1073.04842752 1563.5 1068 C1567.5892426 1062.3102236 1571.72106047 1056.65872505 1575.9375 1051.0625 C1584.96752981 1039.07726924 1593.86143348 1026.99391006 1602.625 1014.8125 C1607.15118421 1008.52227499 1611.74982745 1002.29356429 1616.4128418 996.10424805 C1624.94805014 984.77001601 1633.3390516 973.33001802 1641.625 961.8125 C1646.15118421 955.52227499 1650.74982745 949.29356429 1655.4128418 943.10424805 C1664.50499575 931.03042647 1673.42041744 918.82881224 1682.24584961 906.55908203 C1686.25492141 900.99868171 1690.35079989 895.50912016 1694.48095703 890.03833008 C1698.22032229 885.07234992 1701.87290645 880.04842752 1705.5 875 C1709.5892426 869.3102236 1713.72106047 863.65872505 1717.9375 858.0625 C1726.96752981 846.07726924 1735.86143348 833.99391006 1744.625 821.8125 C1749.15118421 815.52227499 1753.74982745 809.29356429 1758.4128418 803.10424805 C1767.49833407 791.03927278 1776.4100292 778.84832855 1785.22607422 766.58544922 C1789.42124272 760.76476563 1793.7039184 755.01384623 1798.04345703 749.30004883 C1798.50478027 748.69056396 1798.96610352 748.0810791 1799.44140625 747.453125 C1800.03997437 746.66663574 1800.03997437 746.66663574 1800.65063477 745.86425781 C1802.50954319 743.29602464 1804.24138497 740.63792254 1806 738 C1806.33 933.03 1806.66 1128.06 1807 1329 C1739.68 1329 1672.36 1329 1603 1329 C1603 1481.79 1603 1634.58 1603 1792 C1900.99 1792 2198.98 1792 2506 1792 C2506 1639.21 2506 1486.42 2506 1329 C2442.64 1329 2379.28 1329 2314 1329 C2314 1056.75 2314 784.5 2314 504 C2377.03 504 2440.06 504 2505 504 C2505 351.54 2505 199.08 2505 42 C2381.94538073 41.62689357 2381.94538073 41.62689357 2258.89065623 41.37385547 C2241.07513802 41.34731941 2223.2596209 41.32017623 2205.44410653 41.29116208 C2203.28914787 41.28765416 2201.13418917 41.28416533 2198.97923045 41.28069585 C2164.61707663 41.22521429 2130.25520066 41.12765609 2095.89321484 41.00813613 C2060.58100129 40.88553394 2025.26894142 40.80549434 1989.95651862 40.77910513 C1984.97034445 40.77535905 1979.9841708 40.77112577 1974.99799728 40.76659584 C1973.52595337 40.76528109 1973.52595337 40.76528109 1972.02417119 40.76393978 C1956.21876005 40.74856977 1940.41382373 40.68825514 1924.60860631 40.61118356 C1908.72379372 40.53468116 1892.83945242 40.50540791 1876.95446201 40.52448209 C1867.51330059 40.53437959 1858.07386239 40.50792868 1848.63301177 40.42963194 C1842.32713656 40.38090216 1836.02239034 40.3793551 1829.71643734 40.41618642 C1826.12200832 40.43582902 1822.53083759 40.43494615 1818.93675752 40.37651863 C1804.1471109 39.36159174 1804.1471109 39.36159174 1791.16323352 44.84556448 C1788.48185165 47.92353362 1786.72923698 51.30622843 1785 55 C1783.98486291 56.47511412 1782.94478127 57.93424983 1781.85546875 59.35546875 C1780.96358621 60.63102661 1780.07425385 61.90837142 1779.1875 63.1875 C1778.16877406 64.64249126 1777.14921394 66.09689875 1776.12890625 67.55078125 C1775.61473145 68.28377441 1775.10055664 69.01676758 1774.57080078 69.77197266 C1766.87716754 80.68463926 1758.95617231 91.43472008 1751.0222168 102.1730957 C1746.8073457 107.88491391 1742.65931543 113.64000299 1738.546875 119.42578125 C1735.61457267 123.54889574 1732.65151724 127.64965194 1729.6875 131.75 C1729.13956787 132.50804932 1728.59163574 133.26609863 1728.02709961 134.04711914 C1726.90927547 135.59333097 1725.79135496 137.13947313 1724.67333984 138.68554688 C1721.94736861 142.45593019 1719.22378466 146.22803694 1716.5 150 C1715.41667856 151.50000859 1714.33334521 153.00000858 1713.25 154.5 C1712.71375 155.2425 1712.1775 155.985 1711.625 156.75 C1701.33333333 171 1691.04166667 185.25 1680.75 199.5 C1680.21383057 200.24241943 1679.67766113 200.98483887 1679.12524414 201.74975586 C1678.04121584 203.2506555 1676.95706858 204.75146922 1675.87280273 206.25219727 C1673.17412345 209.98773967 1670.47748688 213.72472254 1667.78515625 217.46484375 C1662.17096822 225.25915847 1656.52114617 233.024536 1650.8125 240.75 C1645.99713071 247.26722873 1641.24135527 253.82113315 1636.546875 260.42578125 C1633.61457267 264.54889574 1630.65151724 268.64965194 1627.6875 272.75 C1626.86560181 273.88707397 1626.86560181 273.88707397 1626.02709961 275.04711914 C1624.90927547 276.59333097 1623.79135496 278.13947313 1622.67333984 279.68554688 C1619.94736861 283.45593019 1617.22378466 287.22803694 1614.5 291 C1613.41667856 292.50000859 1612.33334521 294.00000858 1611.25 295.5 C1610.71375 296.2425 1610.1775 296.985 1609.625 297.75 C1595 318 1580.375 338.25 1565.75 358.5 C1565.21383057 359.24241943 1564.67766113 359.98483887 1564.12524414 360.74975586 C1563.04121584 362.2506555 1561.95706858 363.75146922 1560.87280273 365.25219727 C1558.17412345 368.98773967 1555.47748688 372.72472254 1552.78515625 376.46484375 C1547.17096822 384.25915847 1541.52114617 392.024536 1535.8125 399.75 C1530.99713071 406.26722873 1526.24135527 412.82113315 1521.546875 419.42578125 C1518.61457267 423.54889574 1515.65151724 427.64965194 1512.6875 431.75 C1511.86560181 432.88707397 1511.86560181 432.88707397 1511.02709961 434.04711914 C1509.90927547 435.59333097 1508.79135496 437.13947313 1507.67333984 438.68554688 C1504.94736861 442.45593019 1502.22378466 446.22803694 1499.5 450 C1498.41667856 451.50000859 1497.33334521 453.00000858 1496.25 454.5 C1495.71375 455.2425 1495.1775 455.985 1494.625 456.75 C1480 477 1465.375 497.25 1450.75 517.5 C1450.21383057 518.24241943 1449.67766113 518.98483887 1449.12524414 519.74975586 C1448.04121584 521.2506555 1446.95706858 522.75146922 1445.87280273 524.25219727 C1443.17412345 527.98773967 1440.47748688 531.72472254 1437.78515625 535.46484375 C1432.17096822 543.25915847 1426.52114617 551.024536 1420.8125 558.75 C1415.99713071 565.26722873 1411.24135527 571.82113315 1406.546875 578.42578125 C1403.61457267 582.54889574 1400.65151724 586.64965194 1397.6875 590.75 C1397.13956787 591.50804932 1396.59163574 592.26609863 1396.02709961 593.04711914 C1394.90927547 594.59333097 1393.79135496 596.13947313 1392.67333984 597.68554688 C1389.94736861 601.45593019 1387.22378466 605.22803694 1384.5 609 C1383.41667856 610.50000859 1382.33334521 612.00000858 1381.25 613.5 C1380.71375 614.2425 1380.1775 614.985 1379.625 615.75 C1369.33333333 630 1359.04166667 644.25 1348.75 658.5 C1348.21383057 659.24241943 1347.67766113 659.98483887 1347.12524414 660.74975586 C1346.04121584 662.2506555 1344.95706858 663.75146922 1343.87280273 665.25219727 C1341.17412345 668.98773967 1338.47748688 672.72472254 1335.78515625 676.46484375 C1330.17096822 684.25915847 1324.52114617 692.024536 1318.8125 699.75 C1313.99713071 706.26722873 1309.24135527 712.82113315 1304.546875 719.42578125 C1301.07407731 724.30888704 1297.5605263 729.16260371 1294.046875 734.01635742 C1291.15990741 738.00508785 1288.28250022 742.00013571 1285.421875 746.0078125 C1284.83833252 746.82282227 1284.25479004 747.63783203 1283.65356445 748.47753906 C1282.53714114 750.03725978 1281.42354162 751.59900691 1280.31323242 753.16308594 C1277.75700203 756.72742436 1275.25126926 760.02161905 1272 763 C1271.76023437 762.29359375 1271.52046875 761.5871875 1271.2734375 760.859375 C1269.79072165 757.53008664 1267.90315039 755.09584482 1265.625 752.25 C1261.65266089 747.20933414 1257.86659656 742.07086284 1254.1875 736.8125 C1250.02113266 730.86466997 1245.82035671 724.94525864 1241.5625 719.0625 C1241.02262451 718.31653564 1240.48274902 717.57057129 1239.92651367 716.80200195 C1238.83161956 715.28986573 1237.73648578 713.77790301 1236.64111328 712.26611328 C1233.92351827 708.513552 1231.21205527 704.75656581 1228.5 701 C1227.41669638 699.49997854 1226.33336304 697.99997854 1225.25 696.5 C1144.8125 585.125 1144.8125 585.125 776.75 75.5 C775.9441748 74.38431641 775.9441748 74.38431641 775.12207031 73.24609375 C774.04831209 71.75925215 772.97474164 70.27227492 771.90136719 68.78515625 C769.04812979 64.83264966 766.19083476 60.88315266 763.328125 56.9375 C762.4299707 55.69806641 762.4299707 55.69806641 761.51367188 54.43359375 C760.35991307 52.84158547 759.20501074 51.25040513 758.04882812 49.66015625 C757.53255859 48.94730469 757.01628906 48.23445313 756.484375 47.5 C755.79939941 46.55640625 755.79939941 46.55640625 755.10058594 45.59375 C754 44 754 44 753 42 C518.37 42 283.74 42 42 42 Z " fill="#00274B" transform="translate(9,10)"/>
</svg>
