<?xml version="1.0" encoding="UTF-8"?>
<svg version="1.1" xmlns="http://www.w3.org/2000/svg" width="1067" height="1025">
<path d="M0 0 C3.34276439 1.32988171 6.5573337 2.79526079 9.78955078 4.37524414 C10.71562134 4.82577148 10.71562134 4.82577148 11.66040039 5.28540039 C13.66472063 6.26125381 15.66656197 7.24208297 17.66845703 8.22290039 C19.76657523 9.2459025 21.86532572 10.26759914 23.96412659 11.28919983 C25.37174856 11.97444354 26.77916836 12.66010271 28.18638611 13.34617615 C34.33044935 16.34015436 40.49645777 19.28697334 46.66845703 22.22290039 C55.57841775 26.46827142 64.42646807 30.82565199 73.23095703 35.28540039 C71.69335895 39.36044234 69.79477287 43.1923613 67.77392578 47.04321289 C67.07296354 48.39011545 66.37220731 49.73712525 65.67163086 51.08422852 C65.30437897 51.78878174 64.93712708 52.49333496 64.55874634 53.21923828 C20.28382752 138.29723028 -8.69544085 228.88882558 -60.71435547 441.84008789 C-60.89226561 442.64190428 -61.07017574 443.44372066 -61.2534771 444.26983452 C-61.76781369 446.58970731 -62.28087336 448.90985609 -62.79296875 451.23022461 C-62.9552789 451.96560109 -63.11758905 452.70097757 -63.2848177 453.45863819 C-64.17129894 457.49638451 -65.0343121 461.5382003 -65.87493896 465.58575439 C-66.05658537 466.45924593 -66.23823177 467.33273746 -66.42538261 468.23269844 C-66.77469962 469.91893294 -67.12147574 471.60569634 -67.46537971 473.29304314 C-68.65972661 479.06676767 -68.65972661 479.06676767 -69.76904297 481.28540039 C-68.78419922 480.97860352 -67.79935547 480.67180664 -66.78466797 480.35571289 C-43.1206614 473.62678023 -12.54284291 475.22293245 9.62158203 485.92211914 C24.749976 494.37957557 34.05559548 506.00246963 38.94580078 522.73071289 C39.46604377 524.91041708 39.88046744 527.07242544 40.23095703 529.28540039 C40.34181641 529.95442383 40.45267578 530.62344727 40.56689453 531.31274414 C43.78620656 554.67450844 40.42564235 581.3604896 26.48876953 600.70336914 C16.31976233 613.97371257 3.90509386 625.18486278 -10.76904297 633.28540039 C-11.42904297 633.28540039 -12.08904297 633.28540039 -12.76904297 633.28540039 C-12.86701172 632.17422852 -12.96498047 631.06305664 -13.06591797 629.91821289 C-14.1376883 618.85072163 -15.34012327 608.33118738 -23.76904297 600.28540039 C-39.12004036 590.58182277 -57.64315587 596.15969988 -74.08935547 599.73413086 C-77.30768016 600.39620968 -80.50913282 600.88254218 -83.76904297 601.28540039 C-83.81367676 601.89786621 -83.85831055 602.51033203 -83.90429688 603.14135742 C-84.43000322 609.89009782 -85.11303445 616.61215494 -85.85498047 623.34008789 C-88.92209316 651.28766839 -91.3118728 679.20638946 -92.76904297 707.28540039 C-92.80664734 708.00590576 -92.84425171 708.72641113 -92.88299561 709.46875 C-93.37464105 719.07151478 -93.64745362 728.67122906 -93.76904297 738.28540039 C-93.78 739.15040161 -93.79095703 740.01540283 -93.80224609 740.90661621 C-98.961039 815.0960838 -98.961039 815.0960838 -74.84326172 881.37133789 C-60.11770296 894.95989494 -40.21788001 898.08354848 -20.91357422 897.57055664 C13.01594733 896.03327595 46.59804489 882.80360319 76.29345703 867.09790039 C81.28194065 864.55463172 84.67565035 863.0275951 90.23095703 864.28540039 C93.58249146 867.52882081 93.91527428 871.81675056 94.22705078 876.30102539 C94.25869535 900.47747853 83.43749852 922.11358331 68.23095703 940.28540039 C67.60189453 941.0549707 66.97283203 941.82454102 66.32470703 942.61743164 C62.3530067 947.33833908 58.0060187 951.38869455 53.23095703 955.28540039 C52.29509766 956.05883789 51.35923828 956.83227539 50.39501953 957.62915039 C42.22115896 964.23736458 33.55915832 969.46955864 24.23095703 974.28540039 C23.5820752 974.6228125 22.93319336 974.96022461 22.26464844 975.30786133 C-19.51981973 996.73847422 -73.20452541 1009.6078437 -119.33935547 995.75805664 C-149.35205565 986.07886266 -172.68106077 965.37509236 -187.34326172 937.49633789 C-213.77757536 885.16183895 -216.2056914 823.44507176 -213.07373047 765.91040039 C-213.03363987 765.16335154 -212.99354927 764.41630268 -212.9522438 763.64661598 C-211.50316093 737.12388175 -209.25921084 710.64472007 -207.17116833 684.16610652 C-206.5774528 676.63491655 -205.98898267 669.10331908 -205.40081954 661.57169378 C-204.19580362 646.14248954 -202.98461793 630.71377657 -201.76904297 615.28540039 C-202.74963558 615.43944682 -202.74963558 615.43944682 -203.75003815 615.5966053 C-219.87006022 618.12888554 -235.99032694 620.65960239 -252.11084747 623.18870735 C-259.90750912 624.41194078 -267.70409447 625.63565628 -275.50048828 626.8605957 C-342.57428296 637.39845978 -342.57428296 637.39845978 -375.76904297 642.28540039 C-376.05852814 643.1890332 -376.34801331 644.09266602 -376.64627075 645.02368164 C-377.54642088 647.63867026 -378.5035023 650.00722112 -379.73339844 652.47290039 C-380.30639175 653.62820755 -380.30639175 653.62820755 -380.89096069 654.80685425 C-381.30189972 655.62477448 -381.71283875 656.4426947 -382.13623047 657.28540039 C-382.78248886 658.58201096 -382.78248886 658.58201096 -383.44180298 659.90481567 C-384.83776043 662.70077012 -386.24033689 665.49332896 -387.64404297 668.28540039 C-388.12123779 669.23735291 -388.59843262 670.18930542 -389.09008789 671.17010498 C-395.61555946 684.18178105 -402.27054374 697.08365475 -409.38427734 709.78491211 C-410.88873866 712.50153636 -412.35541986 715.23630595 -413.81591797 717.97680664 C-421.42555621 732.24239173 -429.48705817 746.20058192 -437.82421875 760.05151367 C-439.64641632 763.08149471 -441.4568217 766.11821536 -443.26513672 769.15649414 C-452.26783864 784.20295891 -461.90462308 798.79576395 -471.76904297 813.28540039 C-472.39842773 814.2101416 -473.0278125 815.13488281 -473.67626953 816.08764648 C-485.01688193 832.67739543 -497.16815946 848.63569427 -509.76904297 864.28540039 C-510.57212891 865.28571289 -511.37521484 866.28602539 -512.20263672 867.31665039 C-516.55063092 872.67324364 -521.02545205 877.87273197 -525.67138672 882.97290039 C-527.46411743 884.94924411 -529.21699524 886.94996769 -530.95654297 888.97290039 C-541.81343877 901.41676703 -553.18951192 913.83780019 -565.76513672 924.55883789 C-568.02137682 926.50281085 -570.2026819 928.51863557 -572.39404297 930.53540039 C-600.86676203 956.15219323 -634.68218003 977.37297746 -670.76904297 990.28540039 C-671.53603516 990.56077637 -672.30302734 990.83615234 -673.09326172 991.11987305 C-682.49891975 994.43141521 -692.02186917 996.94326701 -701.76904297 999.03540039 C-702.68073242 999.23415771 -703.59242188 999.43291504 -704.53173828 999.63769531 C-722.30989927 1003.254407 -740.18372492 1003.69415504 -758.26904297 1003.66040039 C-759.41723511 1003.65952423 -760.56542725 1003.65864807 -761.74841309 1003.65774536 C-793.40683646 1003.57806164 -823.01866508 999.20696531 -851.76904297 985.28540039 C-852.94337891 984.74270508 -854.11771484 984.20000977 -855.32763672 983.64086914 C-896.77036669 963.91283603 -928.46131566 926.5559977 -943.92138672 883.72290039 C-956.68428279 847.02222229 -957.06230776 805.94856284 -940.06103516 770.53466797 C-934.6772688 759.82057523 -928.02398974 750.12453551 -919.77294922 741.41430664 C-918.04571452 739.57933021 -916.50574562 737.70569912 -914.95654297 735.72290039 C-907.89368964 727.46660093 -897.83799884 720.33403351 -886.91357422 718.91430664 C-881.03979762 718.65272145 -877.30510542 719.21457511 -872.76904297 723.28540039 C-869.54994008 728.11405472 -869.84813063 732.64941688 -870.76904297 738.28540039 C-872.62072612 743.2306586 -875.29202939 747.81617721 -877.80322266 752.44897461 C-887.64224001 771.15703541 -885.70985841 792.71153442 -879.76904297 812.28540039 C-873.17587211 832.55121051 -861.97173907 851.26786821 -847.171875 866.55615234 C-843.76904297 870.09270668 -843.76904297 870.09270668 -843.76904297 872.28540039 C-843.16962891 872.55223633 -842.57021484 872.81907227 -841.95263672 873.09399414 C-839.71777793 874.31337148 -838.51285531 875.46144118 -836.83154297 877.34790039 C-824.16467016 890.28313915 -806.34007075 898.78802935 -788.76904297 902.28540039 C-787.70387451 902.50752197 -787.70387451 902.50752197 -786.6171875 902.73413086 C-744.49772324 911.2238211 -702.23519086 901.64104032 -666.51904297 878.34790039 C-656.53827475 871.44862619 -647.26185091 864.04679377 -638.42138672 855.75024414 C-636.31193233 853.78991171 -634.17958355 851.92485356 -631.95654297 850.09790039 C-628.90447238 847.5142531 -626.3532651 844.64359076 -623.76904297 841.59790039 C-621.86861679 839.40053262 -619.90454737 837.27541213 -617.91723633 835.15673828 C-602.03316476 818.15770307 -588.3459879 798.81688652 -575.76904297 779.28540039 C-575.1096875 778.26736328 -575.1096875 778.26736328 -574.43701172 777.22875977 C-555.18917569 747.43527836 -538.16673188 716.36406979 -521.32763672 685.16870117 C-513.57162178 670.8205595 -505.71683579 656.52812646 -497.76904297 642.28540039 C-499.33138672 641.99149414 -499.33138672 641.99149414 -500.92529297 641.69165039 C-523.80890114 637.05140804 -541.32307051 625.51543165 -554.76904297 606.44946289 C-569.11067484 583.5924871 -573.33058825 554.58471759 -568.64404297 528.22290039 C-564.41170037 510.68043365 -556.86547389 494.77422623 -544.76904297 481.28540039 C-544.21732422 480.65118164 -543.66560547 480.01696289 -543.09716797 479.36352539 C-534.68720608 470.28742791 -522.37077228 462.61146895 -510.76904297 458.28540039 C-508.58178711 458.71557617 -508.58178711 458.71557617 -506.76904297 459.28540039 C-506.98052979 459.89125977 -507.1920166 460.49711914 -507.40991211 461.12133789 C-509.43353489 467.29852513 -510.28544127 472.79909698 -510.20654297 479.28540039 C-510.19300781 480.64507935 -510.19300781 480.64507935 -510.17919922 482.03222656 C-509.76185567 498.6288781 -505.32782337 517.57461766 -493.38232422 529.90649414 C-482.81143349 538.94166225 -471.62532302 542.4991772 -457.89404297 542.34790039 C-456.71841797 542.34113281 -456.71841797 542.34113281 -455.51904297 542.33422852 C-453.60234283 542.32254132 -451.68568248 542.30460947 -449.76904297 542.28540039 C-449.50889404 541.58390869 -449.24874512 540.88241699 -448.98071289 540.15966797 C-447.66433474 537.03701634 -446.09396653 534.22203722 -444.38232422 531.29711914 C-444.04878937 530.72599396 -443.71525452 530.15486877 -443.37161255 529.56643677 C-442.279052 527.69946664 -441.18074269 525.83596837 -440.08154297 523.97290039 C-439.70289093 523.32880219 -439.32423889 522.68470398 -438.93411255 522.02108765 C-432.63666595 511.31402367 -426.13987186 500.7440659 -419.51123047 490.23852539 C-415.5613752 483.97610363 -411.69695377 477.66265717 -407.83154297 471.34790039 C-391.27756271 444.3645498 -373.86286261 417.91148853 -356.45654297 391.47290039 C-355.82385498 390.5118338 -355.19116699 389.55076721 -354.53930664 388.56057739 C-345.68744831 375.12472099 -336.72153049 361.79870417 -327.43505859 348.65893555 C-324.58886759 344.60403096 -321.80653587 340.5057691 -319.01904297 336.41040039 C-309.84777843 322.96666871 -300.39652827 309.73086926 -290.85107422 296.55102539 C-288.55821574 293.38291703 -286.28157504 290.20395046 -284.01660156 287.01586914 C-277.9823429 278.52265629 -271.79489717 270.14457899 -265.60107422 261.76733398 C-263.76729635 259.28303417 -261.93916331 256.79468115 -260.11279297 254.30493164 C-253.86184172 245.78751409 -247.55500675 237.32934825 -241.07910156 228.98120117 C-239.0939008 226.41146496 -237.12656401 223.82818116 -235.1574707 221.24609375 C-225.38122178 208.42815092 -215.49770706 195.69250842 -205.49511719 183.05029297 C-202.18046245 178.84922219 -198.96585595 174.57665493 -195.76904297 170.28540039 C-217.45599742 168.15685752 -239.14384655 166.86189793 -260.91051483 165.87821579 C-388.77758011 160.07769307 -388.77758011 160.07769307 -426.38623047 121.07836914 C-442.66456687 101.99802401 -449.52751549 77.07593334 -447.76904297 52.28540039 C-445.89937835 37.69109395 -439.34110264 22.61802317 -428.76904297 12.28540039 C-421.68365507 6.86538144 -414.90628666 2.85029355 -405.76904297 3.28540039 C-405.83865234 4.73946289 -405.83865234 4.73946289 -405.90966797 6.22290039 C-406.45651813 22.73236906 -403.22704318 37.23052974 -392.32763672 50.18774414 C-359.90580684 84.59169462 -299.74849626 88.96161228 -255.76904297 90.28540039 C-210.27756543 91.42690853 -159.35899375 92.04862814 -116.76904297 74.28540039 C-116.10453125 74.00889648 -115.44001953 73.73239258 -114.75537109 73.44750977 C-96.32674954 65.60516649 -79.17737584 54.69326442 -62.76904297 43.28540039 C-61.79088623 42.60791748 -61.79088623 42.60791748 -60.79296875 41.91674805 C-45.1097422 31.0269666 -29.71757049 19.7332018 -14.73022461 7.90307617 C-13.36719047 6.83066461 -11.99814416 5.76583256 -10.62207031 4.71020508 C-9.44449728 3.80476157 -8.28124099 2.88014053 -7.13867188 1.9309082 C-4.45133288 -0.1545017 -3.37024612 -0.86975052 0 0 Z M-112.76904297 217.28540039 C-117.23980932 221.65165532 -121.52774782 226.09084091 -125.59716797 230.83227539 C-127.94546347 233.48466672 -130.36364405 236.060379 -132.79443359 238.63696289 C-138.25438466 244.42554881 -143.53094938 250.26239358 -148.49951172 256.48461914 C-150.6685441 259.16137684 -152.89711011 261.7702141 -155.15478516 264.37182617 C-161.3107791 271.46729685 -167.15376661 278.7545776 -172.76904297 286.28540039 C-173.29755859 286.99325684 -173.82607422 287.70111328 -174.37060547 288.43041992 C-209.01594676 334.93071675 -238.09285643 384.59683254 -266.18359375 435.23681641 C-279.70150646 459.59305559 -293.36685673 483.89357953 -307.82592773 507.70605469 C-310.09716092 511.45385502 -312.30983437 515.22130014 -314.43066406 519.05664062 C-314.87139252 519.85279282 -315.31212097 520.64894501 -315.76620483 521.46922302 C-316.09714142 522.06856155 -316.428078 522.66790009 -316.76904297 523.28540039 C-291.11222299 520.50975155 -265.49001597 517.4816055 -239.87573242 514.33886719 C-234.75684883 513.71083557 -229.63753068 513.08642309 -224.51809025 512.4629488 C-220.52456256 511.97620943 -216.53125922 511.48764985 -212.53802299 510.99852562 C-210.64707702 510.76712414 -208.75606258 510.53628138 -206.86497688 510.30602455 C-204.25211978 509.98760955 -201.63957514 509.66674339 -199.02709961 509.34521484 C-197.8765509 509.20574684 -197.8765509 509.20574684 -196.70275879 509.0634613 C-193.02206486 508.6078478 -189.39315781 508.07779137 -185.76904297 507.28540039 C-185.40891113 505.79515854 -185.40891113 505.79515854 -185.04150391 504.27481079 C-184.08825942 500.33028583 -183.13496714 496.38577242 -182.18166542 492.44126129 C-181.73836408 490.60696953 -181.29507473 488.77267487 -180.8517971 486.93837738 C-178.14448652 475.73548999 -175.43605677 464.53287472 -172.7253418 453.33081055 C-171.70468982 449.11256402 -170.68411119 444.89429975 -169.66357422 440.67602539 C-169.40910837 439.62428005 -169.15464252 438.57253471 -168.89246559 437.4889183 C-165.86584095 424.97791059 -162.84824453 412.46482436 -159.84991264 399.94700623 C-147.29393115 347.53908602 -134.00792621 295.36588328 -118.84326172 243.64477539 C-118.57219101 242.71994354 -118.3011203 241.79511169 -118.02183533 240.84225464 C-116.86415497 236.91477074 -115.68945516 232.99653334 -114.43164062 229.09985352 C-114.05442871 227.92874023 -113.6772168 226.75762695 -113.28857422 225.55102539 C-112.96606689 224.58455078 -112.64355957 223.61807617 -112.3112793 222.62231445 C-111.52347842 220.1513082 -111.52347842 220.1513082 -112.76904297 217.28540039 Z " fill="#B30737" transform="translate(962.76904296875,10.714599609375)"/>
</svg>
