<?xml version="1.0" encoding="UTF-8"?>
<svg version="1.1" xmlns="http://www.w3.org/2000/svg" width="1200" height="612">
<path d="M0 0 C1.07878418 0.53882813 2.15756836 1.07765625 3.26904297 1.6328125 C18.89484909 9.46379819 33.95548296 18.10099093 48.90673828 27.13232422 C51.71305615 28.82674661 54.52469996 30.51170201 57.33984375 32.19140625 C65.91943227 37.31372464 74.46537751 42.49066817 83 47.6875 C83.9492334 48.26516113 84.8984668 48.84282227 85.87646484 49.43798828 C90.61061621 52.32056742 95.34151978 55.20821448 100.06503296 58.10820007 C115.83688463 67.78697915 131.72788581 77.17625964 148 86 C149.08571289 86.59143799 149.08571289 86.59143799 150.19335938 87.19482422 C164.38451517 94.85619794 179.26892934 98.97716682 195 102 C196.16402344 102.22816406 197.32804687 102.45632812 198.52734375 102.69140625 C228.59640081 107.61680735 259.52320158 103.76308422 286.05859375 88.63671875 C289.79228426 86.55914063 292.36272498 85.87870061 296.5625 85.97265625 C297.44164062 85.98490234 298.32078125 85.99714844 299.2265625 86.00976562 C301.0755992 86.04492337 302.92456577 86.08398639 304.7734375 86.12695312 C305.65257812 86.13791016 306.53171875 86.14886719 307.4375 86.16015625 C308.24058594 86.17699463 309.04367187 86.19383301 309.87109375 86.21118164 C312.30131513 86.13846444 312.30131513 86.13846444 315 84 C322.4657769 82.32663621 327.57803355 84.02679507 334.43359375 87.0859375 C341.49819617 89.60209727 349.24810626 88.06643185 356.375 86.5 C364.65653162 84.70595157 373.77763159 83.36617902 382 86.125 C385.78851898 87.2299847 387.31093463 86.24477666 391 85 C398.04097926 84.27031574 404.66969675 85.00679519 411.5625 86.5 C423.15364485 89.00942311 431.16101372 88.57866765 441.875 83.6875 C446.51587041 82.66650851 450.44290421 83.90659054 455 85 C458.38566796 85.65108999 461.3664932 86.06617411 464.8046875 85.70703125 C475.49325519 84.83937105 482.48678349 88.71525035 491.828125 93.453125 C525.4618409 110.40570227 567.01185595 106.10984083 601.67578125 94.80078125 C623.08782878 86.86951114 642.57558165 73.76195239 661.95654297 61.85791016 C665.77779783 59.52518519 669.63009597 57.25077741 673.5 55 C681.09768653 50.57150077 688.6116332 46.00692564 696.125 41.4375 C697.36702067 40.68244773 698.60904537 39.9274021 699.85107422 39.17236328 C704.00276687 36.64810084 708.15424523 34.1234859 712.3046875 31.59716797 C716.51911706 29.03518184 720.75377054 26.50877783 725 24 C725.86044922 23.48856445 726.72089844 22.97712891 727.60742188 22.45019531 C796.50917616 -18.38647235 882.79262375 -57.35408058 964.66137695 -38.38330078 C969.79594295 -37.01703761 973.14474853 -35.78110831 976.5625 -31.5 C977.20316406 -30.7265625 977.84382813 -29.953125 978.50390625 -29.15625 C980.88937652 -25.71818318 981.46023053 -22.42453656 981.4140625 -18.26171875 C980.45548748 -13.02572879 977.00568221 -8.50241881 972.80786133 -5.35791016 C969.26707696 -3.645551 967.16752027 -3.88021836 963.2734375 -4.29296875 C961.93099872 -4.41566499 960.58820198 -4.53449236 959.24511719 -4.64990234 C958.19946594 -4.74268463 958.19946594 -4.74268463 957.13269043 -4.83734131 C875.1739453 -11.08827302 807.81486011 32.12868339 745.76611328 80.75048828 C738.07864105 86.75795022 730.22005219 92.52149728 722.34277344 98.27636719 C720.09352055 99.93119476 717.86080463 101.60575767 715.6328125 103.2890625 C696.05731609 118.02333045 675.58892053 132.09591121 654.07666016 143.86035156 C652.02193995 144.9879596 649.98556539 146.14430019 647.94921875 147.3046875 C639.49937544 152.03501655 630.7939245 155.88242782 621.8125 159.5 C620.73661621 159.9338501 619.66073242 160.3677002 618.55224609 160.81469727 C613.66777937 162.73450305 609.21847466 164.26018503 604 165 C614.35255135 176.35441116 628.34057664 180.8092208 642.79418945 184.68164062 C651.68762332 187.17668677 658.74298874 191.26098999 664 199 C666.23402663 203.66231644 666.2505389 206.9978444 665 212 C659.16232861 223.20832906 647.90880067 227.94725267 637 233 C636.24235352 233.35803711 635.48470703 233.71607422 634.70410156 234.08496094 C632.39242783 235.17515288 630.07314788 236.24700167 627.75 237.3125 C627.05471191 237.63790771 626.35942383 237.96331543 625.64306641 238.29858398 C615.75203625 242.73261323 605.86930151 244.56894841 595.0625 244.5 C593.98202393 244.49355469 592.90154785 244.48710937 591.78833008 244.48046875 C569.79053802 243.98979968 549.03319903 235.75537244 529.9453125 225.25 C525.61341793 223.41153015 522.42166679 223.52611107 518 225 C518.061875 226.8871875 518.061875 226.8871875 518.125 228.8125 C518.02142167 265.47922868 502.81863866 297.62315327 486.59277344 329.68579102 C475.22396834 352.15968642 464.4882387 374.26187457 459 399 C458.63455078 400.51013672 458.63455078 400.51013672 458.26171875 402.05078125 C453.74158454 422.80649956 460.33549288 441.57233594 466.82592773 461.11621094 C474.99125708 485.79411274 474.99125708 485.79411274 470.796875 494.49609375 C469.74639952 496.11159771 468.67795413 497.71552966 467.59375 499.30859375 C463.62768677 506.00618583 462.21089332 514.04403044 461.25 521.6875 C459.05454251 534.59527594 445.80601217 545.59274888 435.6875 552.875 C421.46413824 562.62726526 403.90894104 563.3618738 387.19995117 563.31567383 C384.8326954 563.31252685 382.46671077 563.33602336 380.09960938 563.36132812 C359.78478185 563.44570449 341.68581883 560.82478948 326 547 C325.30132813 546.4328125 324.60265625 545.865625 323.8828125 545.28125 C316.46117491 539.15912094 308.73512199 531.38481714 307.10546875 521.5859375 C306.957146 520.74683838 306.80882324 519.90773926 306.65600586 519.04321289 C306.50139893 518.16270264 306.34679199 517.28219238 306.1875 516.375 C304.56381118 507.6917269 302.23927555 500.6913646 297.1875 493.375 C294.4504802 487.90096039 296.13333825 480.93215045 297.4375 475.1875 C297.60362793 474.44121338 297.76975586 473.69492676 297.94091797 472.92602539 C299.99277509 464.26753465 302.90931668 455.87806804 305.82592773 447.47924805 C318.44493181 410.99311 304.99685143 377.07879474 288.94830322 343.93322754 C286.33491164 338.60552173 283.63265603 333.32182708 280.95092773 328.02832031 C266.83397645 300.1537221 252.16370117 271.02182205 250.7734375 239.21484375 C250.71796753 237.98060669 250.71796753 237.98060669 250.66137695 236.72143555 C250.59660196 235.10238066 250.54766829 233.48259641 250.51635742 231.86254883 C250.46539847 229.39759552 250.46539847 229.39759552 250 226 C246.43638006 223.62425338 245.20503011 223.54892406 241 224 C238.40666509 225.121596 236.02861922 226.27667282 233.5625 227.625 C214.74437275 237.42457122 195.20611357 244.14890468 173.875 244.25 C172.81023437 244.270625 171.74546875 244.29125 170.6484375 244.3125 C158.21636747 244.37284985 148.07418837 240.97796829 136.9375 235.6875 C135.93912109 235.22666016 134.94074219 234.76582031 133.91210938 234.29101562 C107.78468987 222.1004805 107.78468987 222.1004805 103 211 C102.19760106 204.68110833 103.37589612 200.24987011 107 195 C113.70628356 188.13775635 122.6437751 185.66547531 131.6875 183.1875 C143.28894109 179.84418247 154.29656978 175.70343022 163 167 C163.33 166.34 163.66 165.68 164 165 C163.21625 164.91492188 162.4325 164.82984375 161.625 164.7421875 C156.82304521 163.75902865 152.51880519 161.99714474 148 160.125 C147.03594238 159.72643799 146.07188477 159.32787598 145.07861328 158.91723633 C121.66481515 149.07249618 99.8625069 136.43448168 79 122 C78.34499512 121.54689453 77.68999023 121.09378906 77.01513672 120.62695312 C60.44518214 109.1199306 44.2876867 97.05729706 28.29541016 84.76416016 C10.78926388 71.28141109 10.78926388 71.28141109 -7.109375 58.32958984 C-9.268914 56.81088512 -11.41545976 55.27460192 -13.5625 53.73828125 C-58.62510238 21.63626073 -109.15513838 -5.28640562 -165.75366211 -5.13037109 C-168.03310985 -5.12506837 -170.31235557 -5.13031098 -172.59179688 -5.13671875 C-181.5719579 -5.13977804 -181.5719579 -5.13977804 -190.53759766 -4.68066406 C-191.26401962 -4.62474091 -191.99044159 -4.56881775 -192.73887634 -4.51119995 C-194.7324315 -4.34612548 -196.72411643 -4.15889404 -198.71557617 -3.97021484 C-202.16926921 -4.00153504 -203.56279858 -4.41061293 -206.25 -6.5 C-207.734375 -8.19921875 -207.734375 -8.19921875 -209 -10 C-209.43828125 -10.54269531 -209.8765625 -11.08539063 -210.328125 -11.64453125 C-213.14025613 -15.64713123 -213.51751698 -19.07025841 -212.74609375 -23.72265625 C-210.92659896 -29.27640213 -206.9187805 -33.91697865 -202 -37 C-197.42498071 -38.40817967 -192.71278615 -39.18817257 -188 -40 C-186.80890625 -40.20882812 -185.6178125 -40.41765625 -184.390625 -40.6328125 C-120.69869321 -49.86164343 -56.12786857 -28.25797024 0 0 Z " fill="#BE5600" transform="translate(215,46)"/>
</svg>
