<svg version="1.1" xmlns="http://www.w3.org/2000/svg" width="271" height="186">

<path d="M0 0 C30.03 0 60.06 0 91 0 C91 9.9 91 19.8 91 30 C83.41 30 75.82 30 68 30 C68.53882812 31.66675781 69.07765625 33.33351562 69.6328125 35.05078125 C72.7900299 45.3207624 75.2911836 55.76175018 77.875 66.1875 C78.41114328 68.33937314 78.94735779 70.49122853 79.48364258 72.64306641 C82.57374843 85.07350652 85.59959836 97.51436222 88.38818359 110.01635742 C88.5939502 110.93650635 88.7997168 111.85665527 89.01171875 112.8046875 C89.18147217 113.57796387 89.35122559 114.35124023 89.52612305 115.14794922 C89.94988889 117.07606539 89.94988889 117.07606539 91 119 C91.24121582 118.04971924 91.48243164 117.09943848 91.73095703 116.12036133 C99.83035687 84.24850627 99.83035687 84.24850627 103.96899414 70.10546875 C105.87839965 63.54292938 107.55151146 56.9357317 109.17895508 50.29833984 C110.68644682 44.17547421 112.33092994 38.10199713 114.04614258 32.03442383 C116.15680874 24.53231909 118.10221733 16.9884136 120.03295898 9.43823242 C120.27473877 8.49955322 120.51651855 7.56087402 120.765625 6.59375 C120.97993164 5.75521484 121.19423828 4.91667969 121.41503906 4.05273438 C122 2 122 2 123 0 C133.56 0 144.12 0 155 0 C157.75106053 10.83306502 160.50148533 21.66628908 163.25 32.5 C163.4535183 33.30219593 163.65703659 34.10439186 163.86672211 34.93089676 C170.97180129 62.93889068 178.02381649 90.95958317 185 119 C185.1387001 118.43734436 185.27740021 117.87468872 185.42030334 117.29498291 C186.0608216 114.70138199 186.70422209 112.108504 187.34765625 109.515625 C187.67473572 108.18845459 187.67473572 108.18845459 188.00842285 106.83447266 C189.35296941 101.42643524 190.81937031 96.08263164 192.4375 90.75 C194.8080805 82.88341357 196.79835906 74.94214693 198.76269531 66.96533203 C200.32058205 60.66041362 201.94215891 54.38070523 203.6875 48.125 C203.87763672 47.4431665 204.06777344 46.76133301 204.26367188 46.05883789 C205.77849308 40.68504924 207.39517077 35.34943078 209 30 C202.07 30 195.14 30 188 30 C188 20.1 188 10.2 188 0 C210.11 0 232.22 0 255 0 C255 9.9 255 19.8 255 30 C248.4 30 241.8 30 235 30 C233.85754032 35.62106133 233.85754032 35.62106133 232.72753906 41.24462891 C231.46798167 47.33071438 229.82018381 53.26304114 228.08398438 59.22900391 C226.16160018 65.91664947 224.40033931 72.64711322 222.625 79.375 C222.42957611 80.11334076 222.23415222 80.85168152 222.0328064 81.61239624 C219.55030594 90.99441842 217.13147242 100.38849074 214.8125 109.8125 C212.82871459 117.86998071 210.66017357 125.85067331 208.33056641 133.81469727 C205.77443518 142.61700751 203.513619 151.49325156 201.27172852 160.38012695 C200.84911743 162.04047974 200.84911743 162.04047974 200.41796875 163.734375 C200.16813232 164.72663086 199.9182959 165.71888672 199.66088867 166.74121094 C199 169 199 169 198 170 C196.4651703 170.09319449 194.92607918 170.117458 193.38842773 170.11352539 C192.40748642 170.11344986 191.4265451 170.11337433 190.4158783 170.11329651 C189.3492244 170.10813522 188.2825705 170.10297394 187.18359375 170.09765625 C185.55430687 170.09553383 185.55430687 170.09553383 183.8921051 170.09336853 C180.40720925 170.08775048 176.92237658 170.07519492 173.4375 170.0625 C171.08138113 170.05748733 168.72526126 170.05292402 166.36914062 170.04882812 C160.57940536 170.03777519 154.78970719 170.02101951 149 170 C146.07104492 158.28417969 143.14208984 146.56835938 140.21313477 134.85253906 C140.03343203 134.13374321 139.85372929 133.41494736 139.66858101 132.67436981 C139.30819435 131.23279273 138.94783632 129.79120848 138.58750725 128.349617 C137.70371573 124.81392306 136.81944563 121.27835027 135.93411255 117.74304199 C134.41190565 111.66270424 132.89387059 105.58149846 131.39990234 99.49414062 C131.16659714 98.54738464 130.93329193 97.60062866 130.69291687 96.62518311 C130.27313619 94.91956972 129.85611849 93.21327285 129.44245911 91.50616455 C128.80714491 87.96125823 128.80714491 87.96125823 127 85 C126.72905518 86.10734497 126.72905518 86.10734497 126.45263672 87.23706055 C123.20341003 100.47719748 119.89847364 113.66895586 116.06005859 126.75219727 C114.75598976 131.23334863 113.54943977 135.70964146 112.53393555 140.26538086 C110.20083322 150.57605026 107.25496144 159.69262211 104 170 C87.83 170 71.66 170 55 170 C50.56321773 152.32054712 46.12935321 134.64037096 41.70085144 116.95884228 C39.64460639 108.74934203 37.58703752 100.54017779 35.52636719 92.33178711 C33.73064527 85.17876709 31.93739172 78.02513364 30.14712048 70.87074739 C29.19878397 67.08131807 28.2492001 63.29221108 27.29666138 59.50383568 C26.40061031 55.93995473 25.5078556 52.37526453 24.61764908 48.80991936 C24.1333679 46.87401682 23.64557153 44.9389947 23.15768433 43.0039978 C22.87160309 41.85554886 22.58552185 40.70709991 22.29077148 39.52384949 C22.04004379 38.5237041 21.7893161 37.52355871 21.5309906 36.49310589 C21 34 21 34 21 31 C14.07 31 7.14 31 0 31 C0 20.77 0 10.54 0 0 Z " fill="#32016F" transform="translate(8,8)" data-index="1" style="opacity: 1;"></path>
<path d="M0 0 C34.32 0 68.64 0 104 0 C104 14.52 104 29.04 104 44 C97.07 44 90.14 44 83 44 C84.2684375 48.5478125 84.2684375 48.5478125 85.5625 53.1875 C87.97415355 61.96790425 90.24272515 70.78160873 92.40206909 79.62710571 C92.86941019 81.53962459 93.34202245 83.4508529 93.81469727 85.36206055 C94.10014404 86.54324463 94.38559082 87.72442871 94.6796875 88.94140625 C94.93476074 89.99013916 95.18983398 91.03887207 95.45263672 92.11938477 C95.96772953 94.83016979 96.10697427 97.25000166 96 100 C96.66 100 97.32 100 98 100 C98.12198761 98.68615829 98.24397522 97.37231659 98.36965942 96.0186615 C98.8820695 91.43597827 99.85111367 87.13673086 101.08544922 82.70141602 C101.29535492 81.92612549 101.50526062 81.15083496 101.7215271 80.35205078 C102.40947743 77.81753245 103.10693851 75.28574281 103.8046875 72.75390625 C104.28986918 70.97483622 104.77448891 69.19561284 105.25857544 67.41624451 C106.5303936 62.74795501 107.81049057 58.08197387 109.09216309 53.41638184 C110.13221997 49.62478822 111.16631052 45.83158007 112.20008659 42.03827 C113.44123072 37.48458666 114.68509812 32.93164901 115.9296875 28.37890625 C116.16378201 27.52228456 116.39787651 26.66566288 116.63906479 25.78308296 C117.30986302 23.33098562 117.98249331 20.87939864 118.65576172 18.42797852 C118.84912109 17.72066086 119.04248047 17.0133432 119.24169922 16.28459167 C120.74399428 10.82639528 122.3719352 5.42688266 124 0 C137.86 0 151.72 0 166 0 C171.74410237 20.67876852 171.74410237 20.67876852 173.40356445 27.38720703 C173.599366 28.17012115 173.79516754 28.95303528 173.99690247 29.75967407 C174.62127044 32.25850061 175.24233589 34.75813351 175.86328125 37.2578125 C176.30433162 39.02575797 176.74559463 40.79365041 177.1870575 42.56149292 C178.33166414 47.14744697 179.47343991 51.73410093 180.61456299 56.32092285 C181.7862053 61.02818922 182.96061267 65.73476562 184.13476562 70.44140625 C186.42583554 79.62694293 188.71390596 88.81322376 191 98 C192.36825925 93.22984579 193.73512995 88.45929652 195.10079956 83.68840027 C195.56409598 82.07059891 196.02775016 80.45289995 196.49179077 78.83531189 C199.81222954 67.25945181 203.0086702 55.66618621 206 44 C199.73 44 193.46 44 187 44 C187 29.48 187 14.96 187 0 C213.73 0 240.46 0 268 0 C268 14.52 268 29.04 268 44 C260.74 44 253.48 44 246 44 C245.7421875 45.54042969 245.484375 47.08085938 245.21875 48.66796875 C244.00581448 55.32108974 242.28400585 61.7930502 240.5 68.3125 C239.96951829 70.27330525 239.44087962 72.23460198 238.91230774 74.19592285 C238.53753681 75.58627134 238.1622734 76.97648716 237.7865448 78.36657715 C235.42486826 87.10959175 233.11751114 95.8669068 230.8125 104.625 C230.59703522 105.44283966 230.38157043 106.26067932 230.15957642 107.103302 C227.57781954 116.90725232 225.04064907 126.71899928 222.61816406 136.5637207 C221.35353546 141.67351906 219.98270948 146.74351335 218.5625 151.8125 C215.5797802 162.50664173 212.80246612 173.25721319 210 184 C190.2 184 170.4 184 150 184 C148.94039062 179.79894531 147.88078125 175.59789062 146.7890625 171.26953125 C145.94052895 167.9135215 145.09130255 164.55768878 144.24160767 161.20197296 C143.34579813 157.66333814 142.4512033 154.12440652 141.55957031 150.5847168 C140.70022801 147.17341717 139.83751299 143.76298664 138.97248459 140.35312462 C138.48385361 138.42332675 137.99869043 136.49265189 137.51358032 134.56196594 C137.2134201 133.38111923 136.91325989 132.20027252 136.60400391 130.98364258 C136.34197174 129.94661697 136.07993958 128.90959137 135.80996704 127.84114075 C135.03822549 125.13408446 134.09631458 122.59048615 133 120 C129.44113069 131.73568412 126.28389384 143.52530435 123.375 155.4375 C116.82919691 182.17080309 116.82919691 182.17080309 115 184 C113.15881971 184.09381302 111.31402359 184.11743954 109.47045898 184.11352539 C108.28931015 184.11344986 107.10816132 184.11337433 105.89122009 184.11329651 C104.6058284 184.10813522 103.32043671 184.10297394 101.99609375 184.09765625 C100.0338662 184.09553383 100.0338662 184.09553383 98.03199768 184.09336853 C94.54837141 184.0895441 91.06478661 184.07971446 87.58117676 184.06866455 C84.02873292 184.05844882 80.47628241 184.05387056 76.92382812 184.04882812 C69.94920168 184.03809212 62.97460283 184.0210166 56 184 C52.22446961 170.20303546 48.79666711 156.31800319 45.33462238 142.43988347 C44.47733834 139.00442099 43.61868768 135.56930009 42.76019287 132.13414001 C41.14086799 125.65375416 39.52274099 119.17306984 37.90506339 112.6922726 C36.06072653 105.30367936 34.21502522 97.91542718 32.3692193 90.52720082 C28.57798025 75.35184144 24.78847054 60.17605078 21 45 C14.07 44.67 7.14 44.34 0 44 C0 29.48 0 14.96 0 0 Z M6 7 C6 17.23 6 27.46 6 38 C12.93 38 19.86 38 27 38 C27.26473114 39.54690018 27.52946228 41.09380035 27.80221558 42.68757629 C28.98823835 49.19669252 30.54629549 55.5855261 32.16455078 61.9987793 C32.47695709 63.24884262 32.7893634 64.49890594 33.11123657 65.78684998 C33.95917327 69.17944955 34.81142581 72.57095105 35.66451883 75.96225715 C36.55859503 79.51967448 37.44861295 83.07810692 38.33908081 86.63642883 C40.02197659 93.35872669 41.70846572 100.08011749 43.39628112 106.80118161 C45.31929797 114.45959487 47.23825594 122.11902329 49.15689111 129.77853525 C53.10011207 145.52014989 57.04890632 161.26035922 61 177 C77.17 177 93.34 177 110 177 C113.3635115 166.10294561 113.3635115 166.10294561 116.375 155.125 C116.68135376 153.94695801 116.68135376 153.94695801 116.99389648 152.74511719 C117.4328198 151.05662119 117.87053671 149.36781119 118.30712891 147.67871094 C119.5516537 142.86725003 120.80801195 138.05887086 122.0625 133.25 C122.31741211 132.2717627 122.57232422 131.29352539 122.83496094 130.28564453 C124.86095041 122.51585694 126.92145227 114.75590331 129 107 C129.75073912 104.18769696 130.50037189 101.37509936 131.25 98.5625 C131.83333333 96.375 132.41666667 94.1875 133 92 C135.88779619 100.10157582 137.91341752 108.37908658 139.94140625 116.7265625 C140.31310757 118.24401619 140.68517943 119.76137915 141.05760193 121.27865601 C142.03158843 125.25024056 143.00135714 129.22284183 143.9699707 133.19573975 C145.5223309 139.56012873 147.0808808 145.9230035 148.63996696 152.28574753 C149.18087578 154.49603243 149.71980481 156.70679268 150.25843811 158.91763306 C150.59224751 160.28315378 150.92610236 161.64866339 151.26000977 163.01416016 C151.69277977 164.78879135 151.69277977 164.78879135 152.1342926 166.59927368 C153.02144126 170.08422693 154.01207548 173.54226418 155 177 C171.17 177 187.34 177 204 177 C205.94059606 171.17821182 207.73923518 165.48542933 209.25 159.5625 C209.68410464 157.88651362 210.11904728 156.21074414 210.5546875 154.53515625 C210.78639648 153.64328613 211.01810547 152.75141602 211.25683594 151.83251953 C212.59985339 146.71369942 213.99142265 141.60797451 215.375 136.5 C218.10893281 126.38608481 220.75936245 116.25262405 223.37451172 106.10742188 C225.36797561 98.39150476 227.41685361 90.69215486 229.5 83 C231.99889179 73.76047149 234.45955229 64.51171668 236.875 55.25 C237.17341797 54.11304688 237.47183594 52.97609375 237.77929688 51.8046875 C238.05580078 50.73992188 238.33230469 49.67515625 238.6171875 48.578125 C238.98239502 47.17675293 238.98239502 47.17675293 239.35498047 45.74707031 C240.03315031 42.85881633 240.51226044 39.92643734 241 37 C247.6 37 254.2 37 261 37 C261 27.1 261 17.2 261 7 C238.89 7 216.78 7 194 7 C194 16.9 194 26.8 194 37 C200.93 37 207.86 37 215 37 C213.6696875 41.57875 213.6696875 41.57875 212.3125 46.25 C210.20903245 53.55087595 208.2393868 60.86901304 206.4375 68.25 C204.76272839 75.10340324 202.91100023 81.87118779 200.87915039 88.62670898 C199.27258153 93.99561593 197.79595312 99.39160702 196.375 104.8125 C196.08399414 105.92250366 196.08399414 105.92250366 195.78710938 107.05493164 C194.6404851 111.46214724 193.5275149 115.87737647 192.42431641 120.2956543 C192.15680573 121.36671921 191.88929504 122.43778412 191.61367798 123.54130554 C191.41116425 124.35267471 191.20865051 125.16404388 191 126 C190.83063934 125.32033676 190.66127869 124.64067352 190.48678589 123.94041443 C188.28494011 115.10558957 186.08082579 106.27133188 183.875 97.4375 C183.69694824 96.72443695 183.51889648 96.0113739 183.33544922 95.27670288 C175.98101898 65.82781205 168.5164167 36.40798034 161 7 C150.44 7 139.88 7 129 7 C125.98285628 17.38458768 123.00212198 27.74465559 120.4375 38.25 C118.93402975 44.40241377 117.32230203 50.49666539 115.5 56.5625 C112.77133613 65.65099268 110.37273338 74.81305794 108 84 C107.42334219 86.22660527 106.84650906 88.45316513 106.26953125 90.6796875 C105.35644573 94.20326423 104.44348555 97.72687233 103.53149414 101.25073242 C101.39209438 109.51081471 99.22172695 117.76167089 97 126 C93.91660531 115.51361621 91.25020062 104.96741617 88.8125 94.3125 C85.93092516 81.74415513 82.82800016 69.24022166 79.625 56.75 C79.40204254 55.87727448 79.17908508 55.00454895 78.94937134 54.1053772 C78.31545268 51.62679946 77.67802199 49.14915749 77.0390625 46.671875 C76.84770218 45.92433456 76.65634186 45.17679413 76.45918274 44.40660095 C75.49232633 40.60949953 75.49232633 40.60949953 74 37 C81.59 37 89.18 37 97 37 C97 27.1 97 17.2 97 7 C66.97 7 36.94 7 6 7 Z " fill="#E3CEA1" transform="translate(2,1)" data-index="2" style="opacity: 1;"></path>
<path d="M0 0 C2 3 2 3 2 7 C0.02 7.99 0.02 7.99 -2 9 C-1.34 6.03 -0.68 3.06 0 0 Z " fill="#D3BD9C" transform="translate(135,91)" data-index="3"></path>
</svg>